<svg width="512" height="512" viewBox="0 0 64 64" fill="none" xmlns="http://www.w3.org/2000/svg">
  <defs>
    <linearGradient id="stroke" x1="8" y1="6" x2="58" y2="58" gradientUnits="userSpaceOnUse">
      <stop stop-color="#73F0E8"/>
      <stop offset="1" stop-color="#5AA0FF"/>
    </linearGradient>
    <linearGradient id="ball" x1="18" y1="16" x2="44" y2="46" gradientUnits="userSpaceOnUse">
      <stop stop-color="#FFCF86"/>
      <stop offset="0.55" stop-color="#F18A35"/>
      <stop offset="1" stop-color="#AD5524"/>
    </linearGradient>
    <linearGradient id="mark" x1="19" y1="17" x2="44" y2="42" gradientUnits="userSpaceOnUse">
      <stop stop-color="#F6FBFF"/>
      <stop offset="1" stop-color="#D7F7F3"/>
    </linearGradient>
  </defs>
  <rect x="4" y="4" width="56" height="56" rx="18" fill="#101726"/>
  <rect x="6.5" y="6.5" width="51" height="51" rx="16" fill="#162238" stroke="url(#stroke)" stroke-width="1.8"/>
  <circle cx="32" cy="30" r="15.5" fill="url(#ball)"/>
  <path d="M16.5 30H47.5M32 14.5V45.5" stroke="#132035" stroke-opacity="0.34" stroke-width="2.1" stroke-linecap="round"/>
  <path d="M20 18C27 20.4 31.5 26.2 31.5 30C31.5 33.8 27 39.6 20 42M44 18C37 20.4 32.5 26.2 32.5 30C32.5 33.8 37 39.6 44 42" stroke="#132035" stroke-opacity="0.34" stroke-width="2.1" stroke-linecap="round"/>
  <path d="M20 44H44" stroke="url(#stroke)" stroke-width="3.2" stroke-linecap="round"/>
  <path d="M24 44L26.5 50M32 44V52M40 44L37.5 50" stroke="#E6F8FF" stroke-opacity="0.7" stroke-width="1.8" stroke-linecap="round"/>
  <path d="M23 19.5V40.5M41 19.5V40.5M23 30H41" stroke="url(#mark)" stroke-width="4.6" stroke-linecap="round" stroke-linejoin="round"/>
</svg>
